<?xml version="1.0" encoding="UTF-8" standalone="no"?>
<!DOCTYPE svg PUBLIC "-//W3C//DTD SVG 1.1//EN"
 "http://www.w3.org/Graphics/SVG/1.1/DTD/svg11.dtd">
<!-- Generated by graphviz version 2.38.0 (20140413.2041)
 -->
<!-- Title: controllers_diagram Pages: 1 -->
<svg width="876pt" height="819pt"
 viewBox="0.00 0.00 875.92 819.00" xmlns="http://www.w3.org/2000/svg" xmlns:xlink="http://www.w3.org/1999/xlink">
<g id="graph0" class="graph" transform="scale(1 1) rotate(0) translate(382.104 491.5)">
<title>controllers_diagram</title>
<polygon fill="white" stroke="none" points="-382.104,327.5 -382.104,-491.5 493.817,-491.5 493.817,327.5 -382.104,327.5"/>
<!-- _diagram_info -->
<g id="node1" class="node"><title>_diagram_info</title>
<text text-anchor="start" x="8.31226" y="264.9" font-family="Times,serif" font-size="13.00">Controllers diagram</text>
<text text-anchor="start" x="8.31226" y="277.9" font-family="Times,serif" font-size="13.00">Date: Mar 07 2015 &#45; 21:30</text>
<text text-anchor="start" x="8.31226" y="290.9" font-family="Times,serif" font-size="13.00">Migration version: 20150305005920</text>
<text text-anchor="start" x="8.31226" y="303.9" font-family="Times,serif" font-size="13.00">Generated by RailRoady 1.3.0</text>
<text text-anchor="start" x="8.31226" y="316.9" font-family="Times,serif" font-size="13.00">http://railroady.prestonlee.com</text>
</g>
<!-- AlertsController -->
<g id="node2" class="node"><title>AlertsController</title>
<path fill="none" stroke="black" d="M335.559,323C335.559,323 422.441,323 422.441,323 428.441,323 434.441,317 434.441,311 434.441,311 434.441,119 434.441,119 434.441,113 428.441,107 422.441,107 422.441,107 335.559,107 335.559,107 329.559,107 323.559,113 323.559,119 323.559,119 323.559,311 323.559,311 323.559,317 329.559,323 335.559,323"/>
<text text-anchor="middle" x="379" y="122.2" font-family="Times,serif" font-size="14.00">AlertsController</text>
<polyline fill="none" stroke="black" points="323.559,129 434.441,129 "/>
<text text-anchor="start" x="331.559" y="144.2" font-family="Times,serif" font-size="14.00">create</text>
<text text-anchor="start" x="331.559" y="158.2" font-family="Times,serif" font-size="14.00">destroy</text>
<text text-anchor="start" x="331.559" y="172.2" font-family="Times,serif" font-size="14.00">edit</text>
<text text-anchor="start" x="331.559" y="186.2" font-family="Times,serif" font-size="14.00">index</text>
<text text-anchor="start" x="331.559" y="200.2" font-family="Times,serif" font-size="14.00">new</text>
<text text-anchor="start" x="331.559" y="214.2" font-family="Times,serif" font-size="14.00">show</text>
<text text-anchor="start" x="331.559" y="228.2" font-family="Times,serif" font-size="14.00">update</text>
<polyline fill="none" stroke="black" points="323.559,235 434.441,235 "/>
<polyline fill="none" stroke="black" points="323.559,259 434.441,259 "/>
<text text-anchor="start" x="331.559" y="274.2" font-family="Times,serif" font-size="14.00">_layout</text>
<text text-anchor="start" x="331.559" y="288.2" font-family="Times,serif" font-size="14.00">alert_params</text>
<text text-anchor="start" x="331.559" y="302.2" font-family="Times,serif" font-size="14.00">if_not_signed_in</text>
<text text-anchor="start" x="331.559" y="316.2" font-family="Times,serif" font-size="14.00">set_alert</text>
</g>
<!-- AlliesController -->
<g id="node3" class="node"><title>AlliesController</title>
<path fill="none" stroke="black" d="M371.559,-73C371.559,-73 458.441,-73 458.441,-73 464.441,-73 470.441,-79 470.441,-85 470.441,-85 470.441,-193 470.441,-193 470.441,-199 464.441,-205 458.441,-205 458.441,-205 371.559,-205 371.559,-205 365.559,-205 359.559,-199 359.559,-193 359.559,-193 359.559,-85 359.559,-85 359.559,-79 365.559,-73 371.559,-73"/>
<text text-anchor="middle" x="415" y="-189.8" font-family="Times,serif" font-size="14.00">AlliesController</text>
<polyline fill="none" stroke="black" points="359.559,-183 470.441,-183 "/>
<text text-anchor="start" x="367.559" y="-167.8" font-family="Times,serif" font-size="14.00">add</text>
<text text-anchor="start" x="367.559" y="-153.8" font-family="Times,serif" font-size="14.00">index</text>
<text text-anchor="start" x="367.559" y="-139.8" font-family="Times,serif" font-size="14.00">remove</text>
<polyline fill="none" stroke="black" points="359.559,-133 470.441,-133 "/>
<polyline fill="none" stroke="black" points="359.559,-109 470.441,-109 "/>
<text text-anchor="start" x="367.559" y="-93.8" font-family="Times,serif" font-size="14.00">_layout</text>
<text text-anchor="start" x="367.559" y="-79.8" font-family="Times,serif" font-size="14.00">if_not_signed_in</text>
</g>
<!-- AllyPermissionsController -->
<g id="node4" class="node"><title>AllyPermissionsController</title>
<path fill="none" stroke="black" d="M173.945,-163C173.945,-163 316.055,-163 316.055,-163 322.055,-163 328.055,-169 328.055,-175 328.055,-175 328.055,-353 328.055,-353 328.055,-359 322.055,-365 316.055,-365 316.055,-365 173.945,-365 173.945,-365 167.945,-365 161.945,-359 161.945,-353 161.945,-353 161.945,-175 161.945,-175 161.945,-169 167.945,-163 173.945,-163"/>
<text text-anchor="middle" x="245" y="-349.8" font-family="Times,serif" font-size="14.00">AllyPermissionsController</text>
<polyline fill="none" stroke="black" points="161.945,-343 328.055,-343 "/>
<text text-anchor="start" x="169.945" y="-327.8" font-family="Times,serif" font-size="14.00">create</text>
<text text-anchor="start" x="169.945" y="-313.8" font-family="Times,serif" font-size="14.00">destroy</text>
<text text-anchor="start" x="169.945" y="-299.8" font-family="Times,serif" font-size="14.00">edit</text>
<text text-anchor="start" x="169.945" y="-285.8" font-family="Times,serif" font-size="14.00">index</text>
<text text-anchor="start" x="169.945" y="-271.8" font-family="Times,serif" font-size="14.00">new</text>
<text text-anchor="start" x="169.945" y="-257.8" font-family="Times,serif" font-size="14.00">show</text>
<text text-anchor="start" x="169.945" y="-243.8" font-family="Times,serif" font-size="14.00">update</text>
<polyline fill="none" stroke="black" points="161.945,-237 328.055,-237 "/>
<polyline fill="none" stroke="black" points="161.945,-213 328.055,-213 "/>
<text text-anchor="start" x="169.945" y="-197.8" font-family="Times,serif" font-size="14.00">_layout</text>
<text text-anchor="start" x="169.945" y="-183.8" font-family="Times,serif" font-size="14.00">ally_permission_params</text>
<text text-anchor="start" x="169.945" y="-169.8" font-family="Times,serif" font-size="14.00">set_ally_permission</text>
</g>
<!-- ApplicationController -->
<g id="node5" class="node"><title>ApplicationController</title>
<path fill="none" stroke="black" d="M102.034,89C102.034,89 275.966,89 275.966,89 281.966,89 287.966,83 287.966,77 287.966,77 287.966,-115 287.966,-115 287.966,-121 281.966,-127 275.966,-127 275.966,-127 102.034,-127 102.034,-127 96.0342,-127 90.0342,-121 90.0342,-115 90.0342,-115 90.0342,77 90.0342,77 90.0342,83 96.0342,89 102.034,89"/>
<text text-anchor="middle" x="189" y="-111.8" font-family="Times,serif" font-size="14.00">ApplicationController</text>
<polyline fill="none" stroke="black" points="90.0342,-105 287.966,-105 "/>
<polyline fill="none" stroke="black" points="90.0342,-81 287.966,-81 "/>
<text text-anchor="start" x="98.0342" y="-65.8" font-family="Times,serif" font-size="14.00">are_allies</text>
<text text-anchor="start" x="98.0342" y="-51.8" font-family="Times,serif" font-size="14.00">are_pending_allies</text>
<text text-anchor="start" x="98.0342" y="-37.8" font-family="Times,serif" font-size="14.00">configure_permitted_parameters</text>
<text text-anchor="start" x="98.0342" y="-23.8" font-family="Times,serif" font-size="14.00">fetch_profile_picture</text>
<text text-anchor="start" x="98.0342" y="-9.8" font-family="Times,serif" font-size="14.00">fetch_supporters</text>
<text text-anchor="start" x="98.0342" y="4.2" font-family="Times,serif" font-size="14.00">fetch_taxonomies</text>
<text text-anchor="start" x="98.0342" y="18.2" font-family="Times,serif" font-size="14.00">get_accepted_allies</text>
<text text-anchor="start" x="98.0342" y="32.2" font-family="Times,serif" font-size="14.00">get_incoming_ally_requests</text>
<text text-anchor="start" x="98.0342" y="46.2" font-family="Times,serif" font-size="14.00">get_outgoing_ally_requests</text>
<text text-anchor="start" x="98.0342" y="60.2" font-family="Times,serif" font-size="14.00">user_relation</text>
<polyline fill="none" stroke="black" points="90.0342,67 287.966,67 "/>
<text text-anchor="start" x="98.0342" y="82.2" font-family="Times,serif" font-size="14.00">_layout</text>
</g>
<!-- CategoriesController -->
<g id="node6" class="node"><title>CategoriesController</title>
<path fill="none" stroke="black" d="M-221.707,-1C-221.707,-1 -112.293,-1 -112.293,-1 -106.293,-1 -100.293,-7 -100.293,-13 -100.293,-13 -100.293,-219 -100.293,-219 -100.293,-225 -106.293,-231 -112.293,-231 -112.293,-231 -221.707,-231 -221.707,-231 -227.707,-231 -233.707,-225 -233.707,-219 -233.707,-219 -233.707,-13 -233.707,-13 -233.707,-7 -227.707,-1 -221.707,-1"/>
<text text-anchor="middle" x="-167" y="-215.8" font-family="Times,serif" font-size="14.00">CategoriesController</text>
<polyline fill="none" stroke="black" points="-233.707,-209 -100.293,-209 "/>
<text text-anchor="start" x="-225.707" y="-193.8" font-family="Times,serif" font-size="14.00">create</text>
<text text-anchor="start" x="-225.707" y="-179.8" font-family="Times,serif" font-size="14.00">destroy</text>
<text text-anchor="start" x="-225.707" y="-165.8" font-family="Times,serif" font-size="14.00">edit</text>
<text text-anchor="start" x="-225.707" y="-151.8" font-family="Times,serif" font-size="14.00">index</text>
<text text-anchor="start" x="-225.707" y="-137.8" font-family="Times,serif" font-size="14.00">new</text>
<text text-anchor="start" x="-225.707" y="-123.8" font-family="Times,serif" font-size="14.00">show</text>
<text text-anchor="start" x="-225.707" y="-109.8" font-family="Times,serif" font-size="14.00">update</text>
<polyline fill="none" stroke="black" points="-233.707,-103 -100.293,-103 "/>
<polyline fill="none" stroke="black" points="-233.707,-79 -100.293,-79 "/>
<text text-anchor="start" x="-225.707" y="-63.8" font-family="Times,serif" font-size="14.00">_layout</text>
<text text-anchor="start" x="-225.707" y="-49.8" font-family="Times,serif" font-size="14.00">category_params</text>
<text text-anchor="start" x="-225.707" y="-35.8" font-family="Times,serif" font-size="14.00">if_not_signed_in</text>
<text text-anchor="start" x="-225.707" y="-21.8" font-family="Times,serif" font-size="14.00">is_viewer</text>
<text text-anchor="start" x="-225.707" y="-7.8" font-family="Times,serif" font-size="14.00">set_category</text>
</g>
<!-- MedicationsController -->
<g id="node7" class="node"><title>MedicationsController</title>
<path fill="none" stroke="black" d="M-240.376,-271C-240.376,-271 -121.624,-271 -121.624,-271 -115.624,-271 -109.624,-277 -109.624,-283 -109.624,-283 -109.624,-475 -109.624,-475 -109.624,-481 -115.624,-487 -121.624,-487 -121.624,-487 -240.376,-487 -240.376,-487 -246.376,-487 -252.376,-481 -252.376,-475 -252.376,-475 -252.376,-283 -252.376,-283 -252.376,-277 -246.376,-271 -240.376,-271"/>
<text text-anchor="middle" x="-181" y="-471.8" font-family="Times,serif" font-size="14.00">MedicationsController</text>
<polyline fill="none" stroke="black" points="-252.376,-465 -109.624,-465 "/>
<text text-anchor="start" x="-244.376" y="-449.8" font-family="Times,serif" font-size="14.00">create</text>
<text text-anchor="start" x="-244.376" y="-435.8" font-family="Times,serif" font-size="14.00">destroy</text>
<text text-anchor="start" x="-244.376" y="-421.8" font-family="Times,serif" font-size="14.00">edit</text>
<text text-anchor="start" x="-244.376" y="-407.8" font-family="Times,serif" font-size="14.00">index</text>
<text text-anchor="start" x="-244.376" y="-393.8" font-family="Times,serif" font-size="14.00">new</text>
<text text-anchor="start" x="-244.376" y="-379.8" font-family="Times,serif" font-size="14.00">show</text>
<text text-anchor="start" x="-244.376" y="-365.8" font-family="Times,serif" font-size="14.00">update</text>
<polyline fill="none" stroke="black" points="-252.376,-359 -109.624,-359 "/>
<polyline fill="none" stroke="black" points="-252.376,-335 -109.624,-335 "/>
<text text-anchor="start" x="-244.376" y="-319.8" font-family="Times,serif" font-size="14.00">_layout</text>
<text text-anchor="start" x="-244.376" y="-305.8" font-family="Times,serif" font-size="14.00">if_not_signed_in</text>
<text text-anchor="start" x="-244.376" y="-291.8" font-family="Times,serif" font-size="14.00">medication_params</text>
<text text-anchor="start" x="-244.376" y="-277.8" font-family="Times,serif" font-size="14.00">set_medication</text>
</g>
<!-- MoodsController -->
<g id="node8" class="node"><title>MoodsController</title>
<path fill="none" stroke="black" d="M-258.221,269C-258.221,269 -169.779,269 -169.779,269 -163.779,269 -157.779,263 -157.779,257 -157.779,257 -157.779,51 -157.779,51 -157.779,45 -163.779,39 -169.779,39 -169.779,39 -258.221,39 -258.221,39 -264.221,39 -270.221,45 -270.221,51 -270.221,51 -270.221,257 -270.221,257 -270.221,263 -264.221,269 -258.221,269"/>
<text text-anchor="middle" x="-214" y="54.2" font-family="Times,serif" font-size="14.00">MoodsController</text>
<polyline fill="none" stroke="black" points="-270.221,61 -157.779,61 "/>
<text text-anchor="start" x="-262.221" y="76.2" font-family="Times,serif" font-size="14.00">create</text>
<text text-anchor="start" x="-262.221" y="90.2" font-family="Times,serif" font-size="14.00">destroy</text>
<text text-anchor="start" x="-262.221" y="104.2" font-family="Times,serif" font-size="14.00">edit</text>
<text text-anchor="start" x="-262.221" y="118.2" font-family="Times,serif" font-size="14.00">index</text>
<text text-anchor="start" x="-262.221" y="132.2" font-family="Times,serif" font-size="14.00">new</text>
<text text-anchor="start" x="-262.221" y="146.2" font-family="Times,serif" font-size="14.00">show</text>
<text text-anchor="start" x="-262.221" y="160.2" font-family="Times,serif" font-size="14.00">update</text>
<polyline fill="none" stroke="black" points="-270.221,167 -157.779,167 "/>
<polyline fill="none" stroke="black" points="-270.221,191 -157.779,191 "/>
<text text-anchor="start" x="-262.221" y="206.2" font-family="Times,serif" font-size="14.00">_layout</text>
<text text-anchor="start" x="-262.221" y="220.2" font-family="Times,serif" font-size="14.00">if_not_signed_in</text>
<text text-anchor="start" x="-262.221" y="234.2" font-family="Times,serif" font-size="14.00">is_viewer</text>
<text text-anchor="start" x="-262.221" y="248.2" font-family="Times,serif" font-size="14.00">mood_params</text>
<text text-anchor="start" x="-262.221" y="262.2" font-family="Times,serif" font-size="14.00">set_mood</text>
</g>
<!-- OmniauthCallbacksController -->
<g id="node9" class="node"><title>OmniauthCallbacksController</title>
<path fill="none" stroke="black" d="M101.627,215C101.627,215 262.373,215 262.373,215 268.373,215 274.373,209 274.373,203 274.373,203 274.373,137 274.373,137 274.373,131 268.373,125 262.373,125 262.373,125 101.627,125 101.627,125 95.6274,125 89.6274,131 89.6274,137 89.6274,137 89.6274,203 89.6274,203 89.6274,209 95.6274,215 101.627,215"/>
<text text-anchor="middle" x="182" y="140.2" font-family="Times,serif" font-size="14.00">OmniauthCallbacksController</text>
<polyline fill="none" stroke="black" points="89.6274,147 274.373,147 "/>
<text text-anchor="start" x="97.6274" y="162.2" font-family="Times,serif" font-size="14.00">google_oauth2</text>
<polyline fill="none" stroke="black" points="89.6274,169 274.373,169 "/>
<polyline fill="none" stroke="black" points="89.6274,193 274.373,193 "/>
<text text-anchor="start" x="97.6274" y="208.2" font-family="Times,serif" font-size="14.00">_layout</text>
</g>
<!-- PagesController -->
<g id="node10" class="node"><title>PagesController</title>
<path fill="none" stroke="black" d="M-366.104,-127C-366.104,-127 -283.896,-127 -283.896,-127 -277.896,-127 -271.896,-133 -271.896,-139 -271.896,-139 -271.896,-219 -271.896,-219 -271.896,-225 -277.896,-231 -283.896,-231 -283.896,-231 -366.104,-231 -366.104,-231 -372.104,-231 -378.104,-225 -378.104,-219 -378.104,-219 -378.104,-139 -378.104,-139 -378.104,-133 -372.104,-127 -366.104,-127"/>
<text text-anchor="middle" x="-325" y="-215.8" font-family="Times,serif" font-size="14.00">PagesController</text>
<polyline fill="none" stroke="black" points="-378.104,-209 -271.896,-209 "/>
<text text-anchor="start" x="-370.104" y="-193.8" font-family="Times,serif" font-size="14.00">about</text>
<text text-anchor="start" x="-370.104" y="-179.8" font-family="Times,serif" font-size="14.00">home</text>
<polyline fill="none" stroke="black" points="-378.104,-173 -271.896,-173 "/>
<polyline fill="none" stroke="black" points="-378.104,-149 -271.896,-149 "/>
<text text-anchor="start" x="-370.104" y="-133.8" font-family="Times,serif" font-size="14.00">_layout</text>
</g>
<!-- ProfileController -->
<g id="node11" class="node"><title>ProfileController</title>
<path fill="none" stroke="black" d="M371.559,-235C371.559,-235 458.441,-235 458.441,-235 464.441,-235 470.441,-241 470.441,-247 470.441,-247 470.441,-327 470.441,-327 470.441,-333 464.441,-339 458.441,-339 458.441,-339 371.559,-339 371.559,-339 365.559,-339 359.559,-333 359.559,-327 359.559,-327 359.559,-247 359.559,-247 359.559,-241 365.559,-235 371.559,-235"/>
<text text-anchor="middle" x="415" y="-323.8" font-family="Times,serif" font-size="14.00">ProfileController</text>
<polyline fill="none" stroke="black" points="359.559,-317 470.441,-317 "/>
<text text-anchor="start" x="367.559" y="-301.8" font-family="Times,serif" font-size="14.00">index</text>
<polyline fill="none" stroke="black" points="359.559,-295 470.441,-295 "/>
<polyline fill="none" stroke="black" points="359.559,-271 470.441,-271 "/>
<text text-anchor="start" x="367.559" y="-255.8" font-family="Times,serif" font-size="14.00">_layout</text>
<text text-anchor="start" x="367.559" y="-241.8" font-family="Times,serif" font-size="14.00">if_not_signed_in</text>
</g>
<!-- RegistrationsController -->
<g id="node12" class="node"><title>RegistrationsController</title>
<path fill="none" stroke="black" d="M336.286,71C336.286,71 459.714,71 459.714,71 465.714,71 471.714,65 471.714,59 471.714,59 471.714,-21 471.714,-21 471.714,-27 465.714,-33 459.714,-33 459.714,-33 336.286,-33 336.286,-33 330.286,-33 324.286,-27 324.286,-21 324.286,-21 324.286,59 324.286,59 324.286,65 330.286,71 336.286,71"/>
<text text-anchor="middle" x="398" y="-17.8" font-family="Times,serif" font-size="14.00">RegistrationsController</text>
<polyline fill="none" stroke="black" points="324.286,-11 471.714,-11 "/>
<polyline fill="none" stroke="black" points="324.286,13 471.714,13 "/>
<text text-anchor="start" x="332.286" y="28.2" font-family="Times,serif" font-size="14.00">after_update_path_for</text>
<text text-anchor="start" x="332.286" y="42.2" font-family="Times,serif" font-size="14.00">update_resource</text>
<polyline fill="none" stroke="black" points="324.286,49 471.714,49 "/>
<text text-anchor="start" x="332.286" y="64.2" font-family="Times,serif" font-size="14.00">_layout</text>
</g>
<!-- SearchController -->
<g id="node13" class="node"><title>SearchController</title>
<path fill="none" stroke="black" d="M390.183,-379C390.183,-379 477.817,-379 477.817,-379 483.817,-379 489.817,-385 489.817,-391 489.817,-391 489.817,-471 489.817,-471 489.817,-477 483.817,-483 477.817,-483 477.817,-483 390.183,-483 390.183,-483 384.183,-483 378.183,-477 378.183,-471 378.183,-471 378.183,-391 378.183,-391 378.183,-385 384.183,-379 390.183,-379"/>
<text text-anchor="middle" x="434" y="-467.8" font-family="Times,serif" font-size="14.00">SearchController</text>
<polyline fill="none" stroke="black" points="378.183,-461 489.817,-461 "/>
<text text-anchor="start" x="386.183" y="-445.8" font-family="Times,serif" font-size="14.00">index</text>
<polyline fill="none" stroke="black" points="378.183,-439 489.817,-439 "/>
<polyline fill="none" stroke="black" points="378.183,-415 489.817,-415 "/>
<text text-anchor="start" x="386.183" y="-399.8" font-family="Times,serif" font-size="14.00">_layout</text>
<text text-anchor="start" x="386.183" y="-385.8" font-family="Times,serif" font-size="14.00">if_not_signed_in</text>
</g>
<!-- StrategiesController -->
<g id="node14" class="node"><title>StrategiesController</title>
<path fill="none" stroke="black" d="M-60.376,143C-60.376,143 44.376,143 44.376,143 50.376,143 56.376,137 56.376,131 56.376,131 56.376,-103 56.376,-103 56.376,-109 50.376,-115 44.376,-115 44.376,-115 -60.376,-115 -60.376,-115 -66.376,-115 -72.376,-109 -72.376,-103 -72.376,-103 -72.376,131 -72.376,131 -72.376,137 -66.376,143 -60.376,143"/>
<text text-anchor="middle" x="-8" y="-99.8" font-family="Times,serif" font-size="14.00">StrategiesController</text>
<polyline fill="none" stroke="black" points="-72.376,-93 56.376,-93 "/>
<text text-anchor="start" x="-64.376" y="-77.8" font-family="Times,serif" font-size="14.00">comment</text>
<text text-anchor="start" x="-64.376" y="-63.8" font-family="Times,serif" font-size="14.00">create</text>
<text text-anchor="start" x="-64.376" y="-49.8" font-family="Times,serif" font-size="14.00">destroy</text>
<text text-anchor="start" x="-64.376" y="-35.8" font-family="Times,serif" font-size="14.00">edit</text>
<text text-anchor="start" x="-64.376" y="-21.8" font-family="Times,serif" font-size="14.00">index</text>
<text text-anchor="start" x="-64.376" y="-7.8" font-family="Times,serif" font-size="14.00">new</text>
<text text-anchor="start" x="-64.376" y="6.2" font-family="Times,serif" font-size="14.00">show</text>
<text text-anchor="start" x="-64.376" y="20.2" font-family="Times,serif" font-size="14.00">support</text>
<text text-anchor="start" x="-64.376" y="34.2" font-family="Times,serif" font-size="14.00">update</text>
<polyline fill="none" stroke="black" points="-72.376,41 56.376,41 "/>
<polyline fill="none" stroke="black" points="-72.376,65 56.376,65 "/>
<text text-anchor="start" x="-64.376" y="80.2" font-family="Times,serif" font-size="14.00">_layout</text>
<text text-anchor="start" x="-64.376" y="94.2" font-family="Times,serif" font-size="14.00">hide_page</text>
<text text-anchor="start" x="-64.376" y="108.2" font-family="Times,serif" font-size="14.00">if_not_signed_in</text>
<text text-anchor="start" x="-64.376" y="122.2" font-family="Times,serif" font-size="14.00">set_strategy</text>
<text text-anchor="start" x="-64.376" y="136.2" font-family="Times,serif" font-size="14.00">strategy_params</text>
</g>
<!-- TriggersController -->
<g id="node15" class="node"><title>TriggersController</title>
<path fill="none" stroke="black" d="M-60.2437,-145C-60.2437,-145 36.2437,-145 36.2437,-145 42.2437,-145 48.2437,-151 48.2437,-157 48.2437,-157 48.2437,-391 48.2437,-391 48.2437,-397 42.2437,-403 36.2437,-403 36.2437,-403 -60.2437,-403 -60.2437,-403 -66.2437,-403 -72.2437,-397 -72.2437,-391 -72.2437,-391 -72.2437,-157 -72.2437,-157 -72.2437,-151 -66.2437,-145 -60.2437,-145"/>
<text text-anchor="middle" x="-12" y="-387.8" font-family="Times,serif" font-size="14.00">TriggersController</text>
<polyline fill="none" stroke="black" points="-72.2437,-381 48.2437,-381 "/>
<text text-anchor="start" x="-64.2437" y="-365.8" font-family="Times,serif" font-size="14.00">comment</text>
<text text-anchor="start" x="-64.2437" y="-351.8" font-family="Times,serif" font-size="14.00">create</text>
<text text-anchor="start" x="-64.2437" y="-337.8" font-family="Times,serif" font-size="14.00">destroy</text>
<text text-anchor="start" x="-64.2437" y="-323.8" font-family="Times,serif" font-size="14.00">edit</text>
<text text-anchor="start" x="-64.2437" y="-309.8" font-family="Times,serif" font-size="14.00">index</text>
<text text-anchor="start" x="-64.2437" y="-295.8" font-family="Times,serif" font-size="14.00">new</text>
<text text-anchor="start" x="-64.2437" y="-281.8" font-family="Times,serif" font-size="14.00">show</text>
<text text-anchor="start" x="-64.2437" y="-267.8" font-family="Times,serif" font-size="14.00">support</text>
<text text-anchor="start" x="-64.2437" y="-253.8" font-family="Times,serif" font-size="14.00">update</text>
<polyline fill="none" stroke="black" points="-72.2437,-247 48.2437,-247 "/>
<polyline fill="none" stroke="black" points="-72.2437,-223 48.2437,-223 "/>
<text text-anchor="start" x="-64.2437" y="-207.8" font-family="Times,serif" font-size="14.00">_layout</text>
<text text-anchor="start" x="-64.2437" y="-193.8" font-family="Times,serif" font-size="14.00">hide_page</text>
<text text-anchor="start" x="-64.2437" y="-179.8" font-family="Times,serif" font-size="14.00">if_not_signed_in</text>
<text text-anchor="start" x="-64.2437" y="-165.8" font-family="Times,serif" font-size="14.00">set_trigger</text>
<text text-anchor="start" x="-64.2437" y="-151.8" font-family="Times,serif" font-size="14.00">trigger_params</text>
</g>
</g>
</svg>
