<?xml version="1.0" encoding="UTF-8" standalone="no"?>
<!DOCTYPE svg PUBLIC "-//W3C//DTD SVG 1.1//EN"
 "http://www.w3.org/Graphics/SVG/1.1/DTD/svg11.dtd">
<!-- Generated by graphviz version 2.38.0 (20140413.2041)
 -->
<!-- Title: models_diagram Pages: 1 -->
<svg width="1813pt" height="470pt"
 viewBox="0.00 0.00 1812.97 470.00" xmlns="http://www.w3.org/2000/svg" xmlns:xlink="http://www.w3.org/1999/xlink">
<g id="graph0" class="graph" transform="scale(1 1) rotate(0) translate(4 466)">
<title>models_diagram</title>
<polygon fill="white" stroke="none" points="-4,4 -4,-466 1808.97,-466 1808.97,4 -4,4"/>
<!-- _diagram_info -->
<g id="node1" class="node"><title>_diagram_info</title>
<text text-anchor="start" x="8" y="-321.6" font-family="Times,serif" font-size="13.00">Models diagram</text>
<text text-anchor="start" x="8" y="-308.6" font-family="Times,serif" font-size="13.00">Date: Mar 07 2015 &#45; 21:30</text>
<text text-anchor="start" x="8" y="-295.6" font-family="Times,serif" font-size="13.00">Migration version: 20150305005920</text>
<text text-anchor="start" x="8" y="-282.6" font-family="Times,serif" font-size="13.00">Generated by RailRoady 1.3.0</text>
<text text-anchor="start" x="8" y="-269.6" font-family="Times,serif" font-size="13.00">http://railroady.prestonlee.com</text>
</g>
<!-- Alert -->
<g id="node2" class="node"><title>Alert</title>
<path fill="none" stroke="black" d="M237.182,-193.5C237.182,-193.5 346.193,-193.5 346.193,-193.5 352.193,-193.5 358.193,-199.5 358.193,-205.5 358.193,-205.5 358.193,-393.5 358.193,-393.5 358.193,-399.5 352.193,-405.5 346.193,-405.5 346.193,-405.5 237.182,-405.5 237.182,-405.5 231.182,-405.5 225.182,-399.5 225.182,-393.5 225.182,-393.5 225.182,-205.5 225.182,-205.5 225.182,-199.5 231.182,-193.5 237.182,-193.5"/>
<text text-anchor="middle" x="291.688" y="-390.3" font-family="Times,serif" font-size="14.00">Alert</text>
<polyline fill="none" stroke="black" points="225.182,-383.5 358.193,-383.5 "/>
<text text-anchor="start" x="233.182" y="-368.3" font-family="Times,serif" font-size="14.00">id :integer</text>
<text text-anchor="start" x="233.182" y="-354.3" font-family="Times,serif" font-size="14.00">userid :integer</text>
<text text-anchor="start" x="233.182" y="-340.3" font-family="Times,serif" font-size="14.00">trigger :integer</text>
<text text-anchor="start" x="233.182" y="-326.3" font-family="Times,serif" font-size="14.00">medication :integer</text>
<text text-anchor="start" x="233.182" y="-312.3" font-family="Times,serif" font-size="14.00">message :string</text>
<text text-anchor="start" x="233.182" y="-298.3" font-family="Times,serif" font-size="14.00">means :string</text>
<text text-anchor="start" x="233.182" y="-284.3" font-family="Times,serif" font-size="14.00">days :string</text>
<text text-anchor="start" x="233.182" y="-270.3" font-family="Times,serif" font-size="14.00">time_hour :string</text>
<text text-anchor="start" x="233.182" y="-256.3" font-family="Times,serif" font-size="14.00">created_at :datetime</text>
<text text-anchor="start" x="233.182" y="-242.3" font-family="Times,serif" font-size="14.00">updated_at :datetime</text>
<text text-anchor="start" x="233.182" y="-228.3" font-family="Times,serif" font-size="14.00">name :string</text>
<text text-anchor="start" x="233.182" y="-214.3" font-family="Times,serif" font-size="14.00">time_minute :string</text>
<text text-anchor="start" x="233.182" y="-200.3" font-family="Times,serif" font-size="14.00">time_period :string</text>
</g>
<!-- Ally -->
<g id="node3" class="node"><title>Ally</title>
<path fill="none" stroke="black" d="M388.182,-242.5C388.182,-242.5 497.193,-242.5 497.193,-242.5 503.193,-242.5 509.193,-248.5 509.193,-254.5 509.193,-254.5 509.193,-344.5 509.193,-344.5 509.193,-350.5 503.193,-356.5 497.193,-356.5 497.193,-356.5 388.182,-356.5 388.182,-356.5 382.182,-356.5 376.182,-350.5 376.182,-344.5 376.182,-344.5 376.182,-254.5 376.182,-254.5 376.182,-248.5 382.182,-242.5 388.182,-242.5"/>
<text text-anchor="middle" x="442.688" y="-341.3" font-family="Times,serif" font-size="14.00">Ally</text>
<polyline fill="none" stroke="black" points="376.182,-334.5 509.193,-334.5 "/>
<text text-anchor="start" x="384.182" y="-319.3" font-family="Times,serif" font-size="14.00">id :integer</text>
<text text-anchor="start" x="384.182" y="-305.3" font-family="Times,serif" font-size="14.00">userid1 :integer</text>
<text text-anchor="start" x="384.182" y="-291.3" font-family="Times,serif" font-size="14.00">created_at :datetime</text>
<text text-anchor="start" x="384.182" y="-277.3" font-family="Times,serif" font-size="14.00">updated_at :datetime</text>
<text text-anchor="start" x="384.182" y="-263.3" font-family="Times,serif" font-size="14.00">userid2 :integer</text>
<text text-anchor="start" x="384.182" y="-249.3" font-family="Times,serif" font-size="14.00">status :integer</text>
</g>
<!-- AllyPermission -->
<g id="node4" class="node"><title>AllyPermission</title>
<path fill="none" stroke="black" d="M388.182,-0.5C388.182,-0.5 497.193,-0.5 497.193,-0.5 503.193,-0.5 509.193,-6.5 509.193,-12.5 509.193,-12.5 509.193,-88.5 509.193,-88.5 509.193,-94.5 503.193,-100.5 497.193,-100.5 497.193,-100.5 388.182,-100.5 388.182,-100.5 382.182,-100.5 376.182,-94.5 376.182,-88.5 376.182,-88.5 376.182,-12.5 376.182,-12.5 376.182,-6.5 382.182,-0.5 388.182,-0.5"/>
<text text-anchor="middle" x="442.688" y="-85.3" font-family="Times,serif" font-size="14.00">AllyPermission</text>
<polyline fill="none" stroke="black" points="376.182,-78.5 509.193,-78.5 "/>
<text text-anchor="start" x="384.182" y="-63.3" font-family="Times,serif" font-size="14.00">id :integer</text>
<text text-anchor="start" x="384.182" y="-49.3" font-family="Times,serif" font-size="14.00">created_at :datetime</text>
<text text-anchor="start" x="384.182" y="-35.3" font-family="Times,serif" font-size="14.00">updated_at :datetime</text>
<text text-anchor="start" x="384.182" y="-21.3" font-family="Times,serif" font-size="14.00">view :boolean</text>
<text text-anchor="start" x="384.182" y="-7.3" font-family="Times,serif" font-size="14.00">comment :boolean</text>
</g>
<!-- Ally&#45;&gt;AllyPermission -->
<g id="edge1" class="edge"><title>Ally&#45;&gt;AllyPermission</title>
<path fill="none" stroke="#47d135" d="M442.688,-234.272C442.688,-196.128 442.688,-148.096 442.688,-110.844"/>
<ellipse fill="none" stroke="#47d135" cx="442.688" cy="-238.452" rx="4" ry="4"/>
<polygon fill="#47d135" stroke="#47d135" points="442.688,-110.641 447.188,-100.641 442.688,-105.641 442.688,-100.641 442.688,-100.641 442.688,-100.641 442.688,-105.641 438.188,-100.641 442.688,-110.641 442.688,-110.641"/>
</g>
<!-- Category -->
<g id="node5" class="node"><title>Category</title>
<path fill="none" stroke="black" d="M539.182,-242.5C539.182,-242.5 648.193,-242.5 648.193,-242.5 654.193,-242.5 660.193,-248.5 660.193,-254.5 660.193,-254.5 660.193,-344.5 660.193,-344.5 660.193,-350.5 654.193,-356.5 648.193,-356.5 648.193,-356.5 539.182,-356.5 539.182,-356.5 533.182,-356.5 527.182,-350.5 527.182,-344.5 527.182,-344.5 527.182,-254.5 527.182,-254.5 527.182,-248.5 533.182,-242.5 539.182,-242.5"/>
<text text-anchor="middle" x="593.688" y="-341.3" font-family="Times,serif" font-size="14.00">Category</text>
<polyline fill="none" stroke="black" points="527.182,-334.5 660.193,-334.5 "/>
<text text-anchor="start" x="535.182" y="-319.3" font-family="Times,serif" font-size="14.00">id :integer</text>
<text text-anchor="start" x="535.182" y="-305.3" font-family="Times,serif" font-size="14.00">name :string</text>
<text text-anchor="start" x="535.182" y="-291.3" font-family="Times,serif" font-size="14.00">description :text</text>
<text text-anchor="start" x="535.182" y="-277.3" font-family="Times,serif" font-size="14.00">created_at :datetime</text>
<text text-anchor="start" x="535.182" y="-263.3" font-family="Times,serif" font-size="14.00">updated_at :datetime</text>
<text text-anchor="start" x="535.182" y="-249.3" font-family="Times,serif" font-size="14.00">userid :integer</text>
</g>
<!-- Comment -->
<g id="node6" class="node"><title>Comment</title>
<path fill="none" stroke="black" d="M690.403,-228.5C690.403,-228.5 814.972,-228.5 814.972,-228.5 820.972,-228.5 826.972,-234.5 826.972,-240.5 826.972,-240.5 826.972,-358.5 826.972,-358.5 826.972,-364.5 820.972,-370.5 814.972,-370.5 814.972,-370.5 690.403,-370.5 690.403,-370.5 684.403,-370.5 678.403,-364.5 678.403,-358.5 678.403,-358.5 678.403,-240.5 678.403,-240.5 678.403,-234.5 684.403,-228.5 690.403,-228.5"/>
<text text-anchor="middle" x="752.688" y="-355.3" font-family="Times,serif" font-size="14.00">Comment</text>
<polyline fill="none" stroke="black" points="678.403,-348.5 826.972,-348.5 "/>
<text text-anchor="start" x="686.403" y="-333.3" font-family="Times,serif" font-size="14.00">id :integer</text>
<text text-anchor="start" x="686.403" y="-319.3" font-family="Times,serif" font-size="14.00">comment_type :string</text>
<text text-anchor="start" x="686.403" y="-305.3" font-family="Times,serif" font-size="14.00">commented_on :integer</text>
<text text-anchor="start" x="686.403" y="-291.3" font-family="Times,serif" font-size="14.00">comment_by :integer</text>
<text text-anchor="start" x="686.403" y="-277.3" font-family="Times,serif" font-size="14.00">comment :text</text>
<text text-anchor="start" x="686.403" y="-263.3" font-family="Times,serif" font-size="14.00">created_at :datetime</text>
<text text-anchor="start" x="686.403" y="-249.3" font-family="Times,serif" font-size="14.00">updated_at :datetime</text>
<text text-anchor="start" x="686.403" y="-235.3" font-family="Times,serif" font-size="14.00">visibility :string</text>
</g>
<!-- Medication -->
<g id="node7" class="node"><title>Medication</title>
<path fill="none" stroke="black" d="M857.182,-200.5C857.182,-200.5 966.193,-200.5 966.193,-200.5 972.193,-200.5 978.193,-206.5 978.193,-212.5 978.193,-212.5 978.193,-386.5 978.193,-386.5 978.193,-392.5 972.193,-398.5 966.193,-398.5 966.193,-398.5 857.182,-398.5 857.182,-398.5 851.182,-398.5 845.182,-392.5 845.182,-386.5 845.182,-386.5 845.182,-212.5 845.182,-212.5 845.182,-206.5 851.182,-200.5 857.182,-200.5"/>
<text text-anchor="middle" x="911.688" y="-383.3" font-family="Times,serif" font-size="14.00">Medication</text>
<polyline fill="none" stroke="black" points="845.182,-376.5 978.193,-376.5 "/>
<text text-anchor="start" x="853.182" y="-361.3" font-family="Times,serif" font-size="14.00">id :integer</text>
<text text-anchor="start" x="853.182" y="-347.3" font-family="Times,serif" font-size="14.00">name :string</text>
<text text-anchor="start" x="853.182" y="-333.3" font-family="Times,serif" font-size="14.00">dosage :integer</text>
<text text-anchor="start" x="853.182" y="-319.3" font-family="Times,serif" font-size="14.00">refill :string</text>
<text text-anchor="start" x="853.182" y="-305.3" font-family="Times,serif" font-size="14.00">created_at :datetime</text>
<text text-anchor="start" x="853.182" y="-291.3" font-family="Times,serif" font-size="14.00">updated_at :datetime</text>
<text text-anchor="start" x="853.182" y="-277.3" font-family="Times,serif" font-size="14.00">userid :integer</text>
<text text-anchor="start" x="853.182" y="-263.3" font-family="Times,serif" font-size="14.00">total :integer</text>
<text text-anchor="start" x="853.182" y="-249.3" font-family="Times,serif" font-size="14.00">strength :integer</text>
<text text-anchor="start" x="853.182" y="-235.3" font-family="Times,serif" font-size="14.00">strength_unit :string</text>
<text text-anchor="start" x="853.182" y="-221.3" font-family="Times,serif" font-size="14.00">dosage_unit :string</text>
<text text-anchor="start" x="853.182" y="-207.3" font-family="Times,serif" font-size="14.00">total_unit :string</text>
</g>
<!-- Mood -->
<g id="node8" class="node"><title>Mood</title>
<path fill="none" stroke="black" d="M1008.18,-242.5C1008.18,-242.5 1117.19,-242.5 1117.19,-242.5 1123.19,-242.5 1129.19,-248.5 1129.19,-254.5 1129.19,-254.5 1129.19,-344.5 1129.19,-344.5 1129.19,-350.5 1123.19,-356.5 1117.19,-356.5 1117.19,-356.5 1008.18,-356.5 1008.18,-356.5 1002.18,-356.5 996.182,-350.5 996.182,-344.5 996.182,-344.5 996.182,-254.5 996.182,-254.5 996.182,-248.5 1002.18,-242.5 1008.18,-242.5"/>
<text text-anchor="middle" x="1062.69" y="-341.3" font-family="Times,serif" font-size="14.00">Mood</text>
<polyline fill="none" stroke="black" points="996.182,-334.5 1129.19,-334.5 "/>
<text text-anchor="start" x="1004.18" y="-319.3" font-family="Times,serif" font-size="14.00">id :integer</text>
<text text-anchor="start" x="1004.18" y="-305.3" font-family="Times,serif" font-size="14.00">name :string</text>
<text text-anchor="start" x="1004.18" y="-291.3" font-family="Times,serif" font-size="14.00">description :text</text>
<text text-anchor="start" x="1004.18" y="-277.3" font-family="Times,serif" font-size="14.00">created_at :datetime</text>
<text text-anchor="start" x="1004.18" y="-263.3" font-family="Times,serif" font-size="14.00">updated_at :datetime</text>
<text text-anchor="start" x="1004.18" y="-249.3" font-family="Times,serif" font-size="14.00">userid :integer</text>
</g>
<!-- Strategy -->
<g id="node9" class="node"><title>Strategy</title>
<path fill="none" stroke="black" d="M1159.18,-221.5C1159.18,-221.5 1268.19,-221.5 1268.19,-221.5 1274.19,-221.5 1280.19,-227.5 1280.19,-233.5 1280.19,-233.5 1280.19,-365.5 1280.19,-365.5 1280.19,-371.5 1274.19,-377.5 1268.19,-377.5 1268.19,-377.5 1159.18,-377.5 1159.18,-377.5 1153.18,-377.5 1147.18,-371.5 1147.18,-365.5 1147.18,-365.5 1147.18,-233.5 1147.18,-233.5 1147.18,-227.5 1153.18,-221.5 1159.18,-221.5"/>
<text text-anchor="middle" x="1213.69" y="-362.3" font-family="Times,serif" font-size="14.00">Strategy</text>
<polyline fill="none" stroke="black" points="1147.18,-355.5 1280.19,-355.5 "/>
<text text-anchor="start" x="1155.18" y="-340.3" font-family="Times,serif" font-size="14.00">id :integer</text>
<text text-anchor="start" x="1155.18" y="-326.3" font-family="Times,serif" font-size="14.00">userid :integer</text>
<text text-anchor="start" x="1155.18" y="-312.3" font-family="Times,serif" font-size="14.00">category :text</text>
<text text-anchor="start" x="1155.18" y="-298.3" font-family="Times,serif" font-size="14.00">description :text</text>
<text text-anchor="start" x="1155.18" y="-284.3" font-family="Times,serif" font-size="14.00">viewers :text</text>
<text text-anchor="start" x="1155.18" y="-270.3" font-family="Times,serif" font-size="14.00">comment :boolean</text>
<text text-anchor="start" x="1155.18" y="-256.3" font-family="Times,serif" font-size="14.00">created_at :datetime</text>
<text text-anchor="start" x="1155.18" y="-242.3" font-family="Times,serif" font-size="14.00">updated_at :datetime</text>
<text text-anchor="start" x="1155.18" y="-228.3" font-family="Times,serif" font-size="14.00">name :string</text>
</g>
<!-- Support -->
<g id="node10" class="node"><title>Support</title>
<path fill="none" stroke="black" d="M1310.18,-242.5C1310.18,-242.5 1419.19,-242.5 1419.19,-242.5 1425.19,-242.5 1431.19,-248.5 1431.19,-254.5 1431.19,-254.5 1431.19,-344.5 1431.19,-344.5 1431.19,-350.5 1425.19,-356.5 1419.19,-356.5 1419.19,-356.5 1310.18,-356.5 1310.18,-356.5 1304.18,-356.5 1298.18,-350.5 1298.18,-344.5 1298.18,-344.5 1298.18,-254.5 1298.18,-254.5 1298.18,-248.5 1304.18,-242.5 1310.18,-242.5"/>
<text text-anchor="middle" x="1364.69" y="-341.3" font-family="Times,serif" font-size="14.00">Support</text>
<polyline fill="none" stroke="black" points="1298.18,-334.5 1431.19,-334.5 "/>
<text text-anchor="start" x="1306.18" y="-319.3" font-family="Times,serif" font-size="14.00">id :integer</text>
<text text-anchor="start" x="1306.18" y="-305.3" font-family="Times,serif" font-size="14.00">userid :integer</text>
<text text-anchor="start" x="1306.18" y="-291.3" font-family="Times,serif" font-size="14.00">support_type :string</text>
<text text-anchor="start" x="1306.18" y="-277.3" font-family="Times,serif" font-size="14.00">support_ids :text</text>
<text text-anchor="start" x="1306.18" y="-263.3" font-family="Times,serif" font-size="14.00">created_at :datetime</text>
<text text-anchor="start" x="1306.18" y="-249.3" font-family="Times,serif" font-size="14.00">updated_at :datetime</text>
</g>
<!-- Trigger -->
<g id="node11" class="node"><title>Trigger</title>
<path fill="none" stroke="black" d="M1461.18,-200.5C1461.18,-200.5 1570.19,-200.5 1570.19,-200.5 1576.19,-200.5 1582.19,-206.5 1582.19,-212.5 1582.19,-212.5 1582.19,-386.5 1582.19,-386.5 1582.19,-392.5 1576.19,-398.5 1570.19,-398.5 1570.19,-398.5 1461.18,-398.5 1461.18,-398.5 1455.18,-398.5 1449.18,-392.5 1449.18,-386.5 1449.18,-386.5 1449.18,-212.5 1449.18,-212.5 1449.18,-206.5 1455.18,-200.5 1461.18,-200.5"/>
<text text-anchor="middle" x="1515.69" y="-383.3" font-family="Times,serif" font-size="14.00">Trigger</text>
<polyline fill="none" stroke="black" points="1449.18,-376.5 1582.19,-376.5 "/>
<text text-anchor="start" x="1457.18" y="-361.3" font-family="Times,serif" font-size="14.00">id :integer</text>
<text text-anchor="start" x="1457.18" y="-347.3" font-family="Times,serif" font-size="14.00">category :text</text>
<text text-anchor="start" x="1457.18" y="-333.3" font-family="Times,serif" font-size="14.00">name :string</text>
<text text-anchor="start" x="1457.18" y="-319.3" font-family="Times,serif" font-size="14.00">mood :string</text>
<text text-anchor="start" x="1457.18" y="-305.3" font-family="Times,serif" font-size="14.00">why :text</text>
<text text-anchor="start" x="1457.18" y="-291.3" font-family="Times,serif" font-size="14.00">fix :text</text>
<text text-anchor="start" x="1457.18" y="-277.3" font-family="Times,serif" font-size="14.00">created_at :datetime</text>
<text text-anchor="start" x="1457.18" y="-263.3" font-family="Times,serif" font-size="14.00">updated_at :datetime</text>
<text text-anchor="start" x="1457.18" y="-249.3" font-family="Times,serif" font-size="14.00">userid :integer</text>
<text text-anchor="start" x="1457.18" y="-235.3" font-family="Times,serif" font-size="14.00">viewers :text</text>
<text text-anchor="start" x="1457.18" y="-221.3" font-family="Times,serif" font-size="14.00">comment :boolean</text>
<text text-anchor="start" x="1457.18" y="-207.3" font-family="Times,serif" font-size="14.00">strategies :text</text>
</g>
<!-- User -->
<g id="node12" class="node"><title>User</title>
<path fill="none" stroke="black" d="M1612.41,-137.5C1612.41,-137.5 1792.97,-137.5 1792.97,-137.5 1798.97,-137.5 1804.97,-143.5 1804.97,-149.5 1804.97,-149.5 1804.97,-449.5 1804.97,-449.5 1804.97,-455.5 1798.97,-461.5 1792.97,-461.5 1792.97,-461.5 1612.41,-461.5 1612.41,-461.5 1606.41,-461.5 1600.41,-455.5 1600.41,-449.5 1600.41,-449.5 1600.41,-149.5 1600.41,-149.5 1600.41,-143.5 1606.41,-137.5 1612.41,-137.5"/>
<text text-anchor="middle" x="1702.69" y="-446.3" font-family="Times,serif" font-size="14.00">User</text>
<polyline fill="none" stroke="black" points="1600.41,-439.5 1804.97,-439.5 "/>
<text text-anchor="start" x="1608.41" y="-424.3" font-family="Times,serif" font-size="14.00">id :integer</text>
<text text-anchor="start" x="1608.41" y="-410.3" font-family="Times,serif" font-size="14.00">email :string</text>
<text text-anchor="start" x="1608.41" y="-396.3" font-family="Times,serif" font-size="14.00">encrypted_password :string</text>
<text text-anchor="start" x="1608.41" y="-382.3" font-family="Times,serif" font-size="14.00">reset_password_token :string</text>
<text text-anchor="start" x="1608.41" y="-368.3" font-family="Times,serif" font-size="14.00">reset_password_sent_at :datetime</text>
<text text-anchor="start" x="1608.41" y="-354.3" font-family="Times,serif" font-size="14.00">remember_created_at :datetime</text>
<text text-anchor="start" x="1608.41" y="-340.3" font-family="Times,serif" font-size="14.00">sign_in_count :integer</text>
<text text-anchor="start" x="1608.41" y="-326.3" font-family="Times,serif" font-size="14.00">current_sign_in_at :datetime</text>
<text text-anchor="start" x="1608.41" y="-312.3" font-family="Times,serif" font-size="14.00">last_sign_in_at :datetime</text>
<text text-anchor="start" x="1608.41" y="-298.3" font-family="Times,serif" font-size="14.00">current_sign_in_ip :string</text>
<text text-anchor="start" x="1608.41" y="-284.3" font-family="Times,serif" font-size="14.00">last_sign_in_ip :string</text>
<text text-anchor="start" x="1608.41" y="-270.3" font-family="Times,serif" font-size="14.00">created_at :datetime</text>
<text text-anchor="start" x="1608.41" y="-256.3" font-family="Times,serif" font-size="14.00">updated_at :datetime</text>
<text text-anchor="start" x="1608.41" y="-242.3" font-family="Times,serif" font-size="14.00">name :string</text>
<text text-anchor="start" x="1608.41" y="-228.3" font-family="Times,serif" font-size="14.00">location :string</text>
<text text-anchor="start" x="1608.41" y="-214.3" font-family="Times,serif" font-size="14.00">timezone :string</text>
<text text-anchor="start" x="1608.41" y="-200.3" font-family="Times,serif" font-size="14.00">about :text</text>
<text text-anchor="start" x="1608.41" y="-186.3" font-family="Times,serif" font-size="14.00">avatar :string</text>
<text text-anchor="start" x="1608.41" y="-172.3" font-family="Times,serif" font-size="14.00">token :string</text>
<text text-anchor="start" x="1608.41" y="-158.3" font-family="Times,serif" font-size="14.00">uid :string</text>
<text text-anchor="start" x="1608.41" y="-144.3" font-family="Times,serif" font-size="14.00">provider :string</text>
</g>
</g>
</svg>
