<?xml version="1.0" encoding="UTF-8" standalone="no"?>
<!DOCTYPE svg PUBLIC "-//W3C//DTD SVG 1.1//EN"
 "http://www.w3.org/Graphics/SVG/1.1/DTD/svg11.dtd">
<!-- Generated by graphviz version 2.38.0 (20140413.2041)
 -->
<!-- Title: models_diagram Pages: 1 -->
<svg width="1127pt" height="153pt"
 viewBox="0.00 0.00 1126.69 153.00" xmlns="http://www.w3.org/2000/svg" xmlns:xlink="http://www.w3.org/1999/xlink">
<g id="graph0" class="graph" transform="scale(1 1) rotate(0) translate(4 149)">
<title>models_diagram</title>
<polygon fill="white" stroke="none" points="-4,4 -4,-149 1122.69,-149 1122.69,4 -4,4"/>
<!-- _diagram_info -->
<g id="node1" class="node"><title>_diagram_info</title>
<text text-anchor="start" x="8" y="-130.6" font-family="Times,serif" font-size="13.00">Models diagram</text>
<text text-anchor="start" x="8" y="-117.6" font-family="Times,serif" font-size="13.00">Date: Mar 07 2015 &#45; 21:30</text>
<text text-anchor="start" x="8" y="-104.6" font-family="Times,serif" font-size="13.00">Migration version: 20150305005920</text>
<text text-anchor="start" x="8" y="-91.6" font-family="Times,serif" font-size="13.00">Generated by RailRoady 1.3.0</text>
<text text-anchor="start" x="8" y="-78.6" font-family="Times,serif" font-size="13.00">http://railroady.prestonlee.com</text>
</g>
<!-- Alert -->
<g id="node2" class="node"><title>Alert</title>
<ellipse fill="none" stroke="black" cx="253.688" cy="-108.5" rx="28.0565" ry="18"/>
<text text-anchor="middle" x="253.688" y="-104.3" font-family="Times,serif" font-size="14.00">Alert</text>
</g>
<!-- Ally -->
<g id="node3" class="node"><title>Ally</title>
<ellipse fill="none" stroke="black" cx="326.688" cy="-108.5" rx="27" ry="18"/>
<text text-anchor="middle" x="326.688" y="-104.3" font-family="Times,serif" font-size="14.00">Ally</text>
</g>
<!-- AllyPermission -->
<g id="node4" class="node"><title>AllyPermission</title>
<ellipse fill="none" stroke="black" cx="326.688" cy="-18" rx="65.2736" ry="18"/>
<text text-anchor="middle" x="326.688" y="-13.8" font-family="Times,serif" font-size="14.00">AllyPermission</text>
</g>
<!-- Ally&#45;&gt;AllyPermission -->
<g id="edge1" class="edge"><title>Ally&#45;&gt;AllyPermission</title>
<path fill="none" stroke="#b1a1e3" d="M326.688,-82.189C326.688,-70.9711 326.688,-57.7517 326.688,-46.3113"/>
<ellipse fill="none" stroke="#b1a1e3" cx="326.688" cy="-86.4363" rx="4" ry="4"/>
<polygon fill="#b1a1e3" stroke="#b1a1e3" points="326.688,-46.0113 331.188,-36.0113 326.688,-41.0113 326.688,-36.0113 326.688,-36.0113 326.688,-36.0113 326.688,-41.0113 322.188,-36.0113 326.688,-46.0113 326.688,-46.0113"/>
</g>
<!-- Category -->
<g id="node5" class="node"><title>Category</title>
<ellipse fill="none" stroke="black" cx="414.688" cy="-108.5" rx="42.5456" ry="18"/>
<text text-anchor="middle" x="414.688" y="-104.3" font-family="Times,serif" font-size="14.00">Category</text>
</g>
<!-- Comment -->
<g id="node6" class="node"><title>Comment</title>
<ellipse fill="none" stroke="black" cx="520.688" cy="-108.5" rx="44.9768" ry="18"/>
<text text-anchor="middle" x="520.688" y="-104.3" font-family="Times,serif" font-size="14.00">Comment</text>
</g>
<!-- Medication -->
<g id="node7" class="node"><title>Medication</title>
<ellipse fill="none" stroke="black" cx="633.688" cy="-108.5" rx="50.2637" ry="18"/>
<text text-anchor="middle" x="633.688" y="-104.3" font-family="Times,serif" font-size="14.00">Medication</text>
</g>
<!-- Mood -->
<g id="node8" class="node"><title>Mood</title>
<ellipse fill="none" stroke="black" cx="733.688" cy="-108.5" rx="31.4723" ry="18"/>
<text text-anchor="middle" x="733.688" y="-104.3" font-family="Times,serif" font-size="14.00">Mood</text>
</g>
<!-- Strategy -->
<g id="node9" class="node"><title>Strategy</title>
<ellipse fill="none" stroke="black" cx="822.688" cy="-108.5" rx="39.6558" ry="18"/>
<text text-anchor="middle" x="822.688" y="-104.3" font-family="Times,serif" font-size="14.00">Strategy</text>
</g>
<!-- Support -->
<g id="node10" class="node"><title>Support</title>
<ellipse fill="none" stroke="black" cx="918.688" cy="-108.5" rx="38.2284" ry="18"/>
<text text-anchor="middle" x="918.688" y="-104.3" font-family="Times,serif" font-size="14.00">Support</text>
</g>
<!-- Trigger -->
<g id="node11" class="node"><title>Trigger</title>
<ellipse fill="none" stroke="black" cx="1010.69" cy="-108.5" rx="36.1363" ry="18"/>
<text text-anchor="middle" x="1010.69" y="-104.3" font-family="Times,serif" font-size="14.00">Trigger</text>
</g>
<!-- User -->
<g id="node12" class="node"><title>User</title>
<ellipse fill="none" stroke="black" cx="1091.69" cy="-108.5" rx="27" ry="18"/>
<text text-anchor="middle" x="1091.69" y="-104.3" font-family="Times,serif" font-size="14.00">User</text>
</g>
</g>
</svg>
